{"accessors":[{"bufferView":0,"componentType":5126,"count":96,"max":[2.73,1.33,1.62],"min":[-4.8999999999999995,-1.33,-0.15],"type":"VEC3"},{"bufferView":1,"componentType":5121,"count":96,"type":"VEC4"},{"bufferView":2,"componentType":5121,"count":96,"normalized":true,"type":"VEC4"},{"bufferView":3,"componentType":5123,"count":432,"max":[95],"min":[0],"type":"SCALAR"},{"bufferView":4,"componentType":5126,"count":22,"max":[1.36,-1.25,0.188676],"min":[0.08,-1.59,-1.028676],"type":"VEC3"},{"bufferView":5,"componentType":5121,"count":22,"type":"VEC4"},{"bufferView":6,"componentType":5121,"count":22,"normalized":true,"type":"VEC4"},{"bufferView":7,"componentType":5123,"count":120,"max":[21],"min":[0],"type":"SCALAR"},{"bufferView":8,"componentType":5126,"count":22,"max":[1.36,1.59,0.188676],"min":[0.08,1.25,-1.028676],"type":"VEC3"},{"bufferView":9,"componentType":5121,"count":22,"type":"VEC4"},{"bufferView":10,"componentType":5121,"count":22,"normalized":true,"type":"VEC4"},{"bufferView":11,"componentType":5123,"count":120,"max":[21],"min":[0],"type":"SCALAR"},{"bufferView":12,"componentType":5126,"count":3,"type":"MAT4"}],"asset":{"extras":{"gtt_asset_contract":"gtt.farm-trailer-source-rig.v1","license":"Project-owned original source art"},"generator":"GTT deterministic trailer rig generator","version":"2.0"},"bufferViews":[{"buffer":0,"byteLength":1152,"byteOffset":0,"target":34962},{"buffer":0,"byteLength":384,"byteOffset":1152,"target":34962},{"buffer":0,"byteLength":384,"byteOffset":1536,"target":34962},{"buffer":0,"byteLength":864,"byteOffset":1920,"target":34963},{"buffer":0,"byteLength":264,"byteOffset":2784,"target":34962},{"buffer":0,"byteLength":88,"byteOffset":3048,"target":34962},{"buffer":0,"byteLength":88,"byteOffset":3136,"target":34962},{"buffer":0,"byteLength":240,"byteOffset":3224,"target":34963},{"buffer":0,"byteLength":264,"byteOffset":3464,"target":34962},{"buffer":0,"byteLength":88,"byteOffset":3728,"target":34962},{"buffer":0,"byteLength":88,"byteOffset":3816,"target":34962},{"buffer":0,"byteLength":240,"byteOffset":3904,"target":34963},{"buffer":0,"byteLength":192,"byteOffset":4144}],"buffers":[{"byteLength":4336,"uri":"data:application/octet-stream;base64,"}],"extras":{"acceptance":"source-rig candidate only; Unreal import + packaged Win64 runtime/visual evidence required","gtt_asset_contract":"gtt.farm-trailer-source-rig.v1","required_joints":["body","wheel_l","wheel_r"],"required_sockets":["socket_hitch","socket_cargo","socket_axle_l","socket_axle_r"],"source":"procedurally authored for Swir/GTT; no third-party protected game assets","units":"meters"},"materials":[{"name":"GTT_TrailerPaint","pbrMetallicRoughness":{"baseColorFactor":[0.1,0.22,0.11,1],"metallicFactor":0.55,"roughnessFactor":0.62}},{"name":"GTT_Tire","pbrMetallicRoughness":{"baseColorFactor":[0.025,0.025,0.03,1],"metallicFactor":0,"roughnessFactor":0.92}}],"meshes":[{"name":"GTT_FarmTrailer","primitives":[{"attributes":{"JOINTS_0":1,"POSITION":0,"WEIGHTS_0":2},"indices":3,"material":0,"mode":4},{"attributes":{"JOINTS_0":5,"POSITION":4,"WEIGHTS_0":6},"indices":7,"material":1,"mode":4},{"attributes":{"JOINTS_0":9,"POSITION":8,"WEIGHTS_0":10},"indices":11,"material":1,"mode":4}]}],"nodes":[{"children":[1,2,3,4,5,6,7],"mesh":0,"name":"GTT_FarmTrailer_Rig","skin":0},{"name":"body"},{"name":"wheel_l","translation":[0.72,-1.42,-0.42]},{"name":"wheel_r","translation":[0.72,1.42,-0.42]},{"extras":{"gtt_socket":true},"name":"socket_hitch","translation":[-4.9,0,0.12]},{"extras":{"gtt_socket":true},"name":"socket_cargo","translation":[0,0,1.05]},{"extras":{"gtt_socket":true},"name":"socket_axle_l","translation":[0.72,-1.42,-0.42]},{"extras":{"gtt_socket":true},"name":"socket_axle_r","translation":[0.72,1.42,-0.42]}],"scene":0,"scenes":[{"nodes":[0]}],"skins":[{"extras":{"required_joints":["body","wheel_l","wheel_r"],"required_sockets":["socket_hitch","socket_cargo","socket_axle_l","socket_axle_r"]},"inverseBindMatrices":12,"joints":[1,2,3],"name":"GTT_FarmTrailer_Skin","skeleton":1}]}
